<svg width="42" height="46" viewBox="0 0 42 46" fill="none" xmlns="http://www.w3.org/2000/svg">
<path d="M29.6314 29.478C30.4773 28.9764 31 28.0386 31 27.0224V18.1693C31 17.1531 30.4773 16.2154 29.6314 15.7138L22.3021 11.3679C21.492 10.8876 20.5023 10.8769 19.6829 11.3397L12.4175 15.4425C11.5442 15.9356 11 16.8892 11 17.9263M29.6314 29.478L22.3341 33.8049M29.6314 29.478C29.6317 29.4778 29.632 29.4776 29.6323 29.4774C30.056 29.2259 30.3986 28.865 30.6349 28.4397L21 22.4547M22.3341 33.8049C21.5067 34.2954 20.4933 34.2954 19.6659 33.8049M22.3341 33.8049C22.3336 33.8051 22.3331 33.8054 22.3326 33.8058C21.5056 34.2954 20.4927 34.2948 19.6659 33.8049M19.6659 33.8049L12.3686 29.478M19.6659 33.8049C19.6658 33.8047 19.6661 33.8049 19.6659 33.8049ZM12.3686 29.478C11.5227 28.9764 11 28.0386 11 27.0224M12.3686 29.478C11.9448 29.2265 11.6015 28.8652 11.3651 28.4397M12.3686 29.478C12.3684 29.4778 12.3688 29.4781 12.3686 29.478ZM11 27.0224V17.9263M11 27.0224C11 27.5291 11.1299 28.0163 11.3651 28.4397M11 17.9263C11 17.4076 11.1361 16.9098 11.3815 16.48L21 22.4547M11.3651 28.4397L21 22.4547" stroke="#8F47EC" stroke-width="2" stroke-linejoin="round"/>
</svg>
