<svg width="75" height="141" viewBox="0 0 75 141" fill="none" xmlns="http://www.w3.org/2000/svg">
<path d="M32.1266 2.63426C35.1585 0.995422 38.8205 1.03328 41.8179 2.73446L68.9361 18.1259C72.066 19.9024 74 23.2237 74 26.8227V58.1773C74 61.7763 72.066 65.0976 68.9361 66.8741L41.9361 82.1985C38.8747 83.936 35.1253 83.936 32.0639 82.1985L5.06395 66.8741C1.93395 65.0976 0 61.7763 0 58.1773V25.962C0 22.289 2.01362 18.9116 5.24483 17.165L32.1266 2.63426Z" fill="#C9C6C6"/>
<path fill-rule="evenodd" clip-rule="evenodd" d="M5.06402 66.8741L32.064 82.1985C32.0644 82.1987 32.0648 82.1989 32.0652 82.1991C35.1245 83.9349 38.8707 83.9358 41.9307 82.2016C41.9325 82.2005 41.9343 82.1995 41.9361 82.1985L68.9361 66.8741C68.9374 66.8734 68.9386 66.8727 68.9398 66.872C70.5074 65.9814 71.7748 64.7032 72.6491 63.1967L37.0001 42L1.35107 63.1967C2.22606 64.7044 3.49471 65.9834 5.06402 66.8741Z" fill="#575656"/>
<path fill-rule="evenodd" clip-rule="evenodd" d="M1.35099 63.1967C0.480822 61.6973 0 59.9718 0 58.1772V25.962C0 24.1248 0.503748 22.3616 1.41164 20.8395L36.9995 41.9999L1.35099 63.1967Z" fill="#A4A3A3"/>
<path d="M18.166 117.592C18.166 118.132 18.0521 118.598 17.8242 118.988C17.6029 119.372 17.3099 119.688 16.9453 119.936C16.5807 120.183 16.1641 120.368 15.6953 120.492C15.2331 120.609 14.7643 120.668 14.2891 120.668C13.7292 120.668 13.2018 120.596 12.707 120.453C12.2188 120.303 11.7858 120.082 11.4082 119.789C11.0241 119.496 10.7083 119.135 10.4609 118.705C10.2201 118.269 10.0703 117.761 10.0117 117.182H9.49414C9.52018 117.787 9.65039 118.327 9.88477 118.803C10.1191 119.278 10.4349 119.682 10.832 120.014C11.2747 120.411 11.7956 120.707 12.3945 120.902C13 121.098 13.6315 121.195 14.2891 121.195C14.8424 121.195 15.3828 121.12 15.9102 120.971C16.4375 120.821 16.9095 120.596 17.3262 120.297C17.7363 119.997 18.0684 119.623 18.3223 119.174C18.5762 118.718 18.7031 118.184 18.7031 117.572C18.7031 116.954 18.5697 116.42 18.3027 115.971C18.0423 115.521 17.7103 115.141 17.3066 114.828C16.8704 114.516 16.3919 114.252 15.8711 114.037C15.3568 113.822 14.8457 113.637 14.3379 113.48C13.9017 113.35 13.4492 113.197 12.9805 113.021C12.5117 112.846 12.0885 112.624 11.7109 112.357C11.3333 112.097 11.0241 111.781 10.7832 111.41C10.5488 111.039 10.4316 110.583 10.4316 110.043C10.4316 109.542 10.5456 109.109 10.7734 108.744C11.0078 108.373 11.3073 108.067 11.6719 107.826C12.0365 107.585 12.4434 107.406 12.8926 107.289C13.3418 107.172 13.7878 107.113 14.2305 107.113C14.7578 107.113 15.2428 107.198 15.6855 107.367C16.1283 107.536 16.5156 107.774 16.8477 108.08C17.1797 108.386 17.4466 108.754 17.6484 109.184C17.8568 109.607 17.987 110.076 18.0391 110.59H18.5566C18.5306 109.984 18.4004 109.434 18.166 108.939C17.9382 108.445 17.6322 108.025 17.248 107.68C16.8639 107.335 16.4115 107.068 15.8906 106.879C15.3763 106.684 14.8229 106.586 14.2305 106.586C13.7096 106.586 13.1921 106.661 12.6777 106.811C12.1699 106.954 11.7109 107.169 11.3008 107.455C10.8906 107.748 10.5553 108.113 10.2949 108.549C10.0345 108.985 9.90755 109.49 9.91406 110.062C9.92057 110.733 10.0703 111.286 10.3633 111.723C10.6562 112.152 11.0273 112.52 11.4766 112.826C11.8607 113.087 12.2936 113.311 12.7754 113.5C13.2637 113.689 13.7357 113.852 14.1914 113.988C14.6406 114.125 15.0996 114.288 15.5684 114.477C16.0436 114.659 16.4733 114.887 16.8574 115.16C17.2415 115.434 17.5573 115.769 17.8047 116.166C18.0521 116.557 18.1725 117.032 18.166 117.592ZM30.9492 107.309V106.781H21.0762V107.309H25.7637L25.7441 121H26.2715V107.309H30.9492ZM41.1641 116.752L42.5605 121H43.1074L38.4492 106.781H37.8438L33.1855 121H33.7324L35.1191 116.752H41.1641ZM35.2852 116.225L38.1465 107.504L40.998 116.225H35.2852ZM54.5723 116.645H54.0547C53.9635 117.198 53.8171 117.722 53.6152 118.217C53.4134 118.705 53.1497 119.132 52.8242 119.496C52.4922 119.861 52.0951 120.15 51.6328 120.365C51.1706 120.574 50.6335 120.674 50.0215 120.668C49.5267 120.668 49.084 120.583 48.6934 120.414C48.3027 120.245 47.9577 120.017 47.6582 119.73C47.3522 119.444 47.0918 119.112 46.877 118.734C46.6621 118.357 46.4863 117.956 46.3496 117.533C46.2064 117.117 46.1022 116.687 46.0371 116.244C45.972 115.801 45.9362 115.372 45.9297 114.955V112.807C45.9362 112.396 45.972 111.97 46.0371 111.527C46.1022 111.085 46.2064 110.652 46.3496 110.229C46.4863 109.812 46.6621 109.415 46.877 109.037C47.0983 108.66 47.3587 108.327 47.6582 108.041C47.9577 107.761 48.3027 107.54 48.6934 107.377C49.0905 107.208 49.5332 107.12 50.0215 107.113C50.627 107.107 51.1576 107.211 51.6133 107.426C52.0755 107.634 52.4727 107.921 52.8047 108.285C53.1367 108.65 53.4036 109.076 53.6055 109.564C53.8138 110.053 53.9635 110.57 54.0547 111.117H54.5723C54.5007 110.492 54.3477 109.903 54.1133 109.35C53.8854 108.796 53.5794 108.314 53.1953 107.904C52.8112 107.494 52.3522 107.172 51.8184 106.938C51.2845 106.697 50.6855 106.579 50.0215 106.586C49.4746 106.592 48.9831 106.687 48.5469 106.869C48.1107 107.045 47.7233 107.286 47.3848 107.592C47.0462 107.898 46.7533 108.256 46.5059 108.666C46.2585 109.076 46.0534 109.509 45.8906 109.965C45.7279 110.427 45.6074 110.906 45.5293 111.4C45.4512 111.889 45.4089 112.364 45.4023 112.826V114.955C45.4089 115.424 45.4512 115.902 45.5293 116.391C45.6074 116.872 45.7279 117.344 45.8906 117.807C46.0534 118.269 46.2552 118.705 46.4961 119.115C46.7435 119.525 47.0397 119.883 47.3848 120.189C47.7233 120.495 48.1107 120.74 48.5469 120.922C48.9831 121.104 49.4746 121.195 50.0215 121.195C50.6921 121.202 51.291 121.085 51.8184 120.844C52.3522 120.603 52.8112 120.274 53.1953 119.857C53.5794 119.447 53.8854 118.965 54.1133 118.412C54.3477 117.859 54.5007 117.27 54.5723 116.645ZM60.8418 113.539L66.8379 121H67.4922L61.2129 113.168L67.043 106.781H66.3203L60.8809 112.729L58.7617 114.975V106.781H58.2539V121H58.7617V115.6L60.8418 113.539Z" fill="white"/>
</svg>
