<svg width="75" height="85" viewBox="0 0 75 85" fill="none" xmlns="http://www.w3.org/2000/svg">
<path d="M32.3002 2.63426C35.3321 0.995422 38.9941 1.03328 41.9914 2.73446L69.1096 18.1259C72.2396 19.9024 74.1736 23.2237 74.1736 26.8227V58.1773C74.1736 61.7763 72.2396 65.0976 69.1096 66.8741L42.1096 82.1985C39.0483 83.936 35.2989 83.936 32.2375 82.1985L5.23753 66.8741C2.10754 65.0976 0.173584 61.7763 0.173584 58.1773V25.962C0.173584 22.289 2.18721 18.9116 5.41841 17.165L32.3002 2.63426Z" fill="#745899"/>
<path fill-rule="evenodd" clip-rule="evenodd" d="M5.2352 66.8729C3.66689 65.9823 2.399 64.7037 1.52441 63.1967L37.1734 42L72.8224 63.1967C71.9481 64.7032 70.6808 65.9814 69.1132 66.872C69.1119 66.8727 69.1107 66.8734 69.1095 66.8741L42.1095 82.1985C42.1077 82.1995 42.1058 82.2005 42.104 82.2016C39.0443 83.9356 35.2984 83.9349 32.2392 82.1995C32.2386 82.1991 32.238 82.1988 32.2374 82.1985L5.23736 66.8741C5.23664 66.8737 5.23592 66.8733 5.2352 66.8729Z" fill="#31105B"/>
<path fill-rule="evenodd" clip-rule="evenodd" d="M1.52433 63.1967C0.654162 61.6973 0.17334 59.9718 0.17334 58.1773V25.962C0.17334 24.1249 0.677088 22.3617 1.58498 20.8395L37.1729 41.9999L1.52433 63.1967Z" fill="#4C346B"/>
</svg>
