<svg width="75" height="132" viewBox="0 0 75 132" fill="none" xmlns="http://www.w3.org/2000/svg">
<path d="M32.3002 2.63426C35.3321 0.995422 38.9941 1.03328 41.9914 2.73446L69.1096 18.1259C72.2396 19.9024 74.1736 23.2237 74.1736 26.8227V58.1773C74.1736 61.7763 72.2396 65.0976 69.1096 66.8741L42.1096 82.1985C39.0483 83.936 35.2989 83.936 32.2375 82.1985L5.23753 66.8741C2.10754 65.0976 0.173584 61.7763 0.173584 58.1773V25.962C0.173584 22.289 2.18721 18.9116 5.41841 17.165L32.3002 2.63426Z" fill="#745899"/>
<path fill-rule="evenodd" clip-rule="evenodd" d="M5.23736 66.8741L32.2374 82.1985C32.2378 82.1987 32.2381 82.1989 32.2385 82.1991C35.2978 83.9349 39.0441 83.9358 42.104 82.2016C42.1058 82.2005 42.1077 82.1995 42.1095 82.1985L69.1095 66.8741C69.1107 66.8734 69.1119 66.8727 69.1132 66.872C70.6808 65.9814 71.9481 64.7032 72.8224 63.1967L37.1734 42L1.52441 63.1967C2.3994 64.7044 3.66805 65.9834 5.23736 66.8741Z" fill="#31105B"/>
<path fill-rule="evenodd" clip-rule="evenodd" d="M1.52433 63.1967C0.654161 61.6973 0.17334 59.9718 0.17334 58.1772V25.962C0.17334 24.1248 0.677088 22.3616 1.58498 20.8395L37.1729 41.9999L1.52433 63.1967Z" fill="#4C346B"/>
<path d="M17.166 108.592C17.166 109.132 17.0521 109.598 16.8242 109.988C16.6029 110.372 16.3099 110.688 15.9453 110.936C15.5807 111.183 15.1641 111.368 14.6953 111.492C14.2331 111.609 13.7643 111.668 13.2891 111.668C12.7292 111.668 12.2018 111.596 11.707 111.453C11.2188 111.303 10.7858 111.082 10.4082 110.789C10.0241 110.496 9.70833 110.135 9.46094 109.705C9.22005 109.269 9.07031 108.761 9.01172 108.182H8.49414C8.52018 108.787 8.65039 109.327 8.88477 109.803C9.11914 110.278 9.4349 110.682 9.83203 111.014C10.2747 111.411 10.7956 111.707 11.3945 111.902C12 112.098 12.6315 112.195 13.2891 112.195C13.8424 112.195 14.3828 112.12 14.9102 111.971C15.4375 111.821 15.9095 111.596 16.3262 111.297C16.7363 110.997 17.0684 110.623 17.3223 110.174C17.5762 109.718 17.7031 109.184 17.7031 108.572C17.7031 107.954 17.5697 107.42 17.3027 106.971C17.0423 106.521 16.7103 106.141 16.3066 105.828C15.8704 105.516 15.3919 105.252 14.8711 105.037C14.3568 104.822 13.8457 104.637 13.3379 104.48C12.9017 104.35 12.4492 104.197 11.9805 104.021C11.5117 103.846 11.0885 103.624 10.7109 103.357C10.3333 103.097 10.0241 102.781 9.7832 102.41C9.54883 102.039 9.43164 101.583 9.43164 101.043C9.43164 100.542 9.54557 100.109 9.77344 99.7441C10.0078 99.373 10.3073 99.0671 10.6719 98.8262C11.0365 98.5853 11.4434 98.4062 11.8926 98.2891C12.3418 98.1719 12.7878 98.1133 13.2305 98.1133C13.7578 98.1133 14.2428 98.1979 14.6855 98.3672C15.1283 98.5365 15.5156 98.7741 15.8477 99.0801C16.1797 99.3861 16.4466 99.7539 16.6484 100.184C16.8568 100.607 16.987 101.076 17.0391 101.59H17.5566C17.5306 100.984 17.4004 100.434 17.166 99.9395C16.9382 99.4447 16.6322 99.0247 16.248 98.6797C15.8639 98.3346 15.4115 98.0677 14.8906 97.8789C14.3763 97.6836 13.8229 97.5859 13.2305 97.5859C12.7096 97.5859 12.1921 97.6608 11.6777 97.8105C11.1699 97.9538 10.7109 98.1686 10.3008 98.4551C9.89062 98.748 9.55534 99.1126 9.29492 99.5488C9.03451 99.985 8.90755 100.49 8.91406 101.062C8.92057 101.733 9.07031 102.286 9.36328 102.723C9.65625 103.152 10.0273 103.52 10.4766 103.826C10.8607 104.087 11.2936 104.311 11.7754 104.5C12.2637 104.689 12.7357 104.852 13.1914 104.988C13.6406 105.125 14.0996 105.288 14.5684 105.477C15.0436 105.659 15.4733 105.887 15.8574 106.16C16.2415 106.434 16.5573 106.769 16.8047 107.166C17.0521 107.557 17.1725 108.032 17.166 108.592ZM29.9492 98.3086V97.7812H20.0762V98.3086H24.7637L24.7441 112H25.2715V98.3086H29.9492ZM40.1641 107.752L41.5605 112H42.1074L37.4492 97.7812H36.8438L32.1855 112H32.7324L34.1191 107.752H40.1641ZM34.2852 107.225L37.1465 98.5039L39.998 107.225H34.2852ZM53.5723 107.645H53.0547C52.9635 108.198 52.8171 108.722 52.6152 109.217C52.4134 109.705 52.1497 110.132 51.8242 110.496C51.4922 110.861 51.0951 111.15 50.6328 111.365C50.1706 111.574 49.6335 111.674 49.0215 111.668C48.5267 111.668 48.084 111.583 47.6934 111.414C47.3027 111.245 46.9577 111.017 46.6582 110.73C46.3522 110.444 46.0918 110.112 45.877 109.734C45.6621 109.357 45.4863 108.956 45.3496 108.533C45.2064 108.117 45.1022 107.687 45.0371 107.244C44.972 106.801 44.9362 106.372 44.9297 105.955V103.807C44.9362 103.396 44.972 102.97 45.0371 102.527C45.1022 102.085 45.2064 101.652 45.3496 101.229C45.4863 100.812 45.6621 100.415 45.877 100.037C46.0983 99.6595 46.3587 99.3275 46.6582 99.041C46.9577 98.7611 47.3027 98.5397 47.6934 98.377C48.0905 98.2077 48.5332 98.1198 49.0215 98.1133C49.627 98.1068 50.1576 98.2109 50.6133 98.4258C51.0755 98.6341 51.4727 98.9206 51.8047 99.2852C52.1367 99.6497 52.4036 100.076 52.6055 100.564C52.8138 101.053 52.9635 101.57 53.0547 102.117H53.5723C53.5007 101.492 53.3477 100.903 53.1133 100.35C52.8854 99.7962 52.5794 99.3145 52.1953 98.9043C51.8112 98.4941 51.3522 98.1719 50.8184 97.9375C50.2845 97.6966 49.6855 97.5794 49.0215 97.5859C48.4746 97.5924 47.9831 97.6868 47.5469 97.8691C47.1107 98.0449 46.7233 98.2858 46.3848 98.5918C46.0462 98.8978 45.7533 99.2559 45.5059 99.666C45.2585 100.076 45.0534 100.509 44.8906 100.965C44.7279 101.427 44.6074 101.906 44.5293 102.4C44.4512 102.889 44.4089 103.364 44.4023 103.826V105.955C44.4089 106.424 44.4512 106.902 44.5293 107.391C44.6074 107.872 44.7279 108.344 44.8906 108.807C45.0534 109.269 45.2552 109.705 45.4961 110.115C45.7435 110.525 46.0397 110.883 46.3848 111.189C46.7233 111.495 47.1107 111.74 47.5469 111.922C47.9831 112.104 48.4746 112.195 49.0215 112.195C49.6921 112.202 50.291 112.085 50.8184 111.844C51.3522 111.603 51.8112 111.274 52.1953 110.857C52.5794 110.447 52.8854 109.965 53.1133 109.412C53.3477 108.859 53.5007 108.27 53.5723 107.645ZM59.8418 104.539L65.8379 112H66.4922L60.2129 104.168L66.043 97.7812H65.3203L59.8809 103.729L57.7617 105.975V97.7812H57.2539V112H57.7617V106.6L59.8418 104.539Z" fill="#252627"/>
</svg>
