<svg width="103" height="47" viewBox="0 0 103 47" fill="none" xmlns="http://www.w3.org/2000/svg">
<path d="M12.3651 29.4397C12.13 29.0163 12 28.5291 12 28.0224M12.3651 29.4397L21.9999 23.4547M12.3651 29.4397C12.6015 29.8652 12.9448 30.2265 13.3686 30.478M12 28.0224V18.9263M12 28.0224C12 29.0386 12.5227 29.9764 13.3686 30.478M12 18.9263C12 18.4076 12.1361 17.9098 12.3815 17.48L21.9999 23.4547M12 18.9263C12 17.8893 12.5442 16.9356 13.4175 16.4425L20.6829 12.3397C21.5023 11.8769 22.492 11.8876 23.3021 12.3679L30.6314 16.7138C31.4773 17.2154 32 18.1531 32 19.1693V28.0224C32 29.0386 31.4773 29.9764 30.6314 30.478M21.9999 23.4547L31.6349 29.4397C31.3986 29.865 31.056 30.2259 30.6323 30.4774C30.632 30.4776 30.6317 30.4778 30.6314 30.478M30.6314 30.478L23.3341 34.8049M23.3341 34.8049C22.5067 35.2954 21.4933 35.2954 20.6659 34.8049M23.3341 34.8049C23.3336 34.8051 23.3331 34.8054 23.3326 34.8058C22.5056 35.2954 21.4927 35.2948 20.6659 34.8049M20.6659 34.8049L13.3686 30.478M20.6659 34.8049C20.6658 34.8047 20.6661 34.8049 20.6659 34.8049ZM13.3686 30.478C13.3684 30.4778 13.3688 30.4781 13.3686 30.478Z" stroke="#8F47EC" stroke-width="2" stroke-linejoin="round"/>
<path d="M44.5102 30H41.9902C41.1236 30 40.4369 29.7467 39.9302 29.24C39.4369 28.7333 39.1902 28.04 39.1902 27.16V19.98C39.1902 19.1 39.4369 18.4067 39.9302 17.9C40.4369 17.3933 41.1236 17.14 41.9902 17.14H44.5102C45.3769 17.14 46.0569 17.3933 46.5502 17.9C47.0569 18.4067 47.3102 19.1 47.3102 19.98V20.96C47.3102 21.12 47.2369 21.2 47.0902 21.2H46.5302C46.3836 21.2 46.3102 21.12 46.3102 20.96V20.02C46.3102 19.38 46.1436 18.8933 45.8102 18.56C45.4902 18.2133 45.0236 18.04 44.4102 18.04H42.0702C41.4569 18.04 40.9902 18.2133 40.6702 18.56C40.3502 18.9067 40.1902 19.3933 40.1902 20.02V27.12C40.1902 27.7467 40.3502 28.2333 40.6702 28.58C40.9902 28.9267 41.4569 29.1 42.0702 29.1H44.4102C45.0236 29.1 45.4902 28.9333 45.8102 28.6C46.1436 28.2533 46.3102 27.76 46.3102 27.12V26.18C46.3102 26.02 46.3836 25.94 46.5302 25.94H47.0902C47.2369 25.94 47.3102 26.02 47.3102 26.18V27.16C47.3102 28.04 47.0569 28.7333 46.5502 29.24C46.0569 29.7467 45.3769 30 44.5102 30ZM48.6101 30H48.0301C47.8967 30 47.8301 29.92 47.8301 29.76V17.38C47.8301 17.22 47.8967 17.14 48.0301 17.14H48.6101C48.7567 17.14 48.8301 17.22 48.8301 17.38V22.84C48.8301 22.96 48.8967 23.02 49.0301 23.02H54.6301C54.7634 23.02 54.8301 22.96 54.8301 22.84V17.38C54.8301 17.22 54.8967 17.14 55.0301 17.14H55.6101C55.7567 17.14 55.8301 17.22 55.8301 17.38V29.76C55.8301 29.92 55.7567 30 55.6101 30H55.0301C54.8967 30 54.8301 29.92 54.8301 29.76V24.1C54.8301 23.98 54.7634 23.92 54.6301 23.92H49.0301C48.8967 23.92 48.8301 23.98 48.8301 24.1V29.76C48.8301 29.92 48.7567 30 48.6101 30ZM56.4963 30H55.8763C55.7297 30 55.683 29.92 55.7363 29.76L59.7163 17.38C59.7563 17.22 59.8497 17.14 59.9963 17.14H60.9363C61.0697 17.14 61.163 17.22 61.2163 17.38L65.1963 29.76C65.2363 29.92 65.1897 30 65.0563 30H64.4163C64.283 30 64.1963 29.92 64.1563 29.76L63.0763 26.56H57.8363L56.7563 29.76C56.703 29.92 56.6163 30 56.4963 30ZM60.4163 18.24L58.1163 25.66H62.8163L60.4963 18.24H60.4163ZM67.9004 30H67.3204C67.1737 30 67.1004 29.92 67.1004 29.76V18.22C67.1004 18.1 67.0337 18.04 66.9004 18.04H64.0004C63.8404 18.04 63.7604 17.9667 63.7604 17.82V17.36C63.7604 17.2133 63.8404 17.14 64.0004 17.14H71.2004C71.3604 17.14 71.4404 17.2133 71.4404 17.36V17.82C71.4404 17.9667 71.3604 18.04 71.2004 18.04H68.3004C68.1671 18.04 68.1004 18.1 68.1004 18.22V29.76C68.1004 29.92 68.0337 30 67.9004 30ZM73.8988 30H73.3188C73.1722 30 73.0988 29.92 73.0988 29.76V18.22C73.0988 18.1 73.0322 18.04 72.8988 18.04H69.9988C69.8388 18.04 69.7588 17.9667 69.7588 17.82V17.36C69.7588 17.2133 69.8388 17.14 69.9988 17.14H77.1988C77.3588 17.14 77.4388 17.2133 77.4388 17.36V17.82C77.4388 17.9667 77.3588 18.04 77.1988 18.04H74.2988C74.1655 18.04 74.0988 18.1 74.0988 18.22V29.76C74.0988 29.92 74.0322 30 73.8988 30ZM83.4773 30H77.2973C77.1639 30 77.0973 29.92 77.0973 29.76V17.38C77.0973 17.22 77.1639 17.14 77.2973 17.14H83.4773C83.6373 17.14 83.7173 17.2133 83.7173 17.36V17.82C83.7173 17.9667 83.6373 18.04 83.4773 18.04H78.2973C78.1639 18.04 78.0973 18.1 78.0973 18.22V22.82C78.0973 22.94 78.1639 23 78.2973 23H82.9173C83.0639 23 83.1373 23.0733 83.1373 23.22V23.68C83.1373 23.8267 83.0639 23.9 82.9173 23.9H78.2973C78.1639 23.9 78.0973 23.96 78.0973 24.08V28.92C78.0973 29.04 78.1639 29.1 78.2973 29.1H83.4773C83.6373 29.1 83.7173 29.1733 83.7173 29.32V29.78C83.7173 29.9267 83.6373 30 83.4773 30ZM85.1062 30H84.5262C84.3928 30 84.3262 29.92 84.3262 29.76V17.38C84.3262 17.22 84.3928 17.14 84.5262 17.14H89.0862C89.9528 17.14 90.6395 17.3933 91.1462 17.9C91.6528 18.4067 91.9062 19.1 91.9062 19.98V21.88C91.9062 22.6267 91.7128 23.24 91.3262 23.72C90.9528 24.2 90.4395 24.5067 89.7862 24.64V24.72L92.1662 29.76C92.2462 29.92 92.1995 30 92.0262 30H91.4062C91.2328 30 91.1128 29.92 91.0462 29.76L88.6862 24.72H85.5262C85.3928 24.72 85.3262 24.78 85.3262 24.9V29.76C85.3262 29.92 85.2528 30 85.1062 30ZM85.5262 23.86H88.9862C89.5995 23.86 90.0728 23.6933 90.4062 23.36C90.7395 23.0133 90.9062 22.5267 90.9062 21.9V20.02C90.9062 19.3933 90.7395 18.9067 90.4062 18.56C90.0728 18.2133 89.5995 18.04 88.9862 18.04H85.5262C85.3928 18.04 85.3262 18.1 85.3262 18.22V23.68C85.3262 23.8 85.3928 23.86 85.5262 23.86Z" fill="black"/>
</svg>
