<svg width="74" height="85" viewBox="0 0 74 85" fill="none" xmlns="http://www.w3.org/2000/svg">
<path d="M32.1266 2.63426C35.1585 0.995422 38.8205 1.03328 41.8179 2.73446L68.9361 18.1259C72.066 19.9024 74 23.2237 74 26.8227V58.1773C74 61.7763 72.066 65.0976 68.9361 66.8741L41.9361 82.1985C38.8747 83.936 35.1253 83.936 32.0639 82.1985L5.06395 66.8741C1.93395 65.0976 0 61.7763 0 58.1773V25.962C0 22.289 2.01362 18.9116 5.24483 17.165L32.1266 2.63426Z" fill="#C9C6C6"/>
<path fill-rule="evenodd" clip-rule="evenodd" d="M5.06186 66.8729C3.49355 65.9823 2.22566 64.7037 1.35107 63.1967L37.0001 42L72.6491 63.1967C71.7748 64.7032 70.5074 65.9814 68.9398 66.872C68.9386 66.8727 68.9374 66.8734 68.9361 66.8741L41.9361 82.1985C41.9343 82.1995 41.9325 82.2005 41.9307 82.2016C38.8709 83.9356 35.125 83.9349 32.0658 82.1995C32.0652 82.1991 32.0646 82.1988 32.064 82.1985L5.06402 66.8741C5.0633 66.8737 5.06258 66.8733 5.06186 66.8729Z" fill="#575656"/>
<path fill-rule="evenodd" clip-rule="evenodd" d="M1.35099 63.1967C0.480822 61.6973 0 59.9718 0 58.1773V25.962C0 24.1249 0.503748 22.3617 1.41164 20.8395L36.9995 41.9999L1.35099 63.1967Z" fill="#A4A3A3"/>
</svg>
